<?xml version="1.0" standalone="no"?><!DOCTYPE svg PUBLIC "-//W3C//DTD SVG 1.1//EN" "http://www.w3.org/Graphics/SVG/1.1/DTD/svg11.dtd"><svg t="1543382147813" class="icon" style="" viewBox="0 0 1024 1024" version="1.1" xmlns="http://www.w3.org/2000/svg" p-id="1866" xmlns:xlink="http://www.w3.org/1999/xlink" width="200" height="200"><defs><style type="text/css"></style></defs><path d="M733.3 952H634V272.9c0-18.9 3.3-37.7 9.7-55.5l33-91.8c2.3-6.5 11.5-6.5 13.9 0l33 91.8c6.4 17.8 9.7 36.6 9.7 55.5V952z" fill="#FCC58D" p-id="1867"></path><path d="M677.6 217.4l23.6-65.7-9.4-26.1c-2.3-6.5-11.5-6.5-13.9 0l-33 91.8c-6.4 17.8-9.7 36.6-9.7 55.5V952h32.7V272.9c0-18.9 3.3-37.7 9.7-55.5z" fill="#EFB083" p-id="1868"></path><path d="M676.7 125.6l-33 91.8c-4 11.1-6.8 22.5-8.3 34.2h96.5c-1.5-11.6-4.3-23.1-8.3-34.2l-33-91.8c-2.4-6.5-11.6-6.5-13.9 0z" fill="#FCC58D" p-id="1869"></path><path d="M733.3 962.9H634c-6 0-10.9-4.9-10.9-10.9V272.9c0-20.2 3.5-40.1 10.3-59.2l33-91.8c2.6-7.3 9.4-12.1 17.2-12.1s14.6 4.7 17.2 12.1l33 91.8c6.8 19 10.3 39 10.3 59.2V952c0.1 6-4.8 10.9-10.8 10.9z m-88.4-21.8h77.5V272.9c0-17.7-3-35.1-9-51.8l-29.7-82.6-29.7 82.6c-6 16.7-9 34.1-9 51.8v668.2z" fill="#8A278E" p-id="1870"></path><path d="M731.9 261.3h-96.5c-3.1 0-6.1-1.4-8.2-3.7-2.1-2.4-3-5.5-2.6-8.6 1.6-12.4 4.6-24.7 8.8-36.4l33-91.8c2.6-7.3 9.4-12.1 17.2-12.1s14.6 4.7 17.2 12.1l33 91.8c4.2 11.8 7.2 24 8.8 36.4 0.4 3.1-0.5 6.2-2.6 8.6-2 2.3-5 3.7-8.1 3.7z m-83.6-21.8h70.6c-1.4-6.6-3.3-13.2-5.6-19.6l-29.7-82.6-29.7 82.6c-2.3 6.4-4.1 12.9-5.6 19.6z m38.6-111.4z" fill="#8A278E" p-id="1871"></path><path d="M394.3 966H295V286.9c0-18.9 3.3-37.7 9.7-55.5l33-91.8c2.3-6.5 11.5-6.5 13.9 0l33 91.8c6.4 17.8 9.7 36.6 9.7 55.5V966z" fill="#FCC58D" p-id="1872"></path><path d="M384.6 231.4l-33-91.8c-2.3-6.5-11.5-6.5-13.9 0l-9.4 26.1 23.6 65.7c6.4 17.8 9.7 36.6 9.7 55.5V966h32.7V286.9c0-18.9-3.3-37.7-9.7-55.5z" fill="#EFB083" p-id="1873"></path><path d="M394.3 976.8H295c-6 0-10.9-4.9-10.9-10.9v-679c0-20.2 3.5-40.1 10.3-59.2l33-91.8c2.6-7.3 9.4-12.1 17.2-12.1 7.8 0 14.6 4.7 17.2 12.1l33 91.8c6.8 19 10.3 39 10.3 59.2V966c0.1 6-4.8 10.8-10.8 10.8z m-88.4-21.7h77.5V286.9c0-17.7-3-35.1-9-51.8l-29.7-82.6-29.7 82.6c-6 16.7-9 34.1-9 51.8v668.2z" fill="#8A278E" p-id="1874"></path><path d="M634 859.4H394.3V406.3c0-125.7 35.9-248.7 103.5-354.7 7.6-12 25.1-12 32.8 0 67.6 106 103.5 229 103.5 354.7v453.1z" fill="#C1D2DB" p-id="1875"></path><path d="M634 870.3H394.3c-6 0-10.9-4.9-10.9-10.9V406.3c0-128 36.4-252.7 105.2-360.6 5.6-8.8 15.2-14 25.6-14 10.4 0 20 5.2 25.6 14C608.6 153.6 645 278.3 645 406.3v453.1c-0.1 6-5 10.9-11 10.9z m-228.8-21.8h217.9V406.3c0-123.8-35.2-244.4-101.8-348.8-2.3-3.6-5.8-3.9-7.2-3.9s-4.9 0.4-7.2 3.9c-66.6 104.4-101.8 225-101.8 348.8v442.2z" fill="#8A278E" p-id="1876"></path><path d="M440.9 498.3l-51.3 209.9c-3.6 14.6-13.2 26.9-26.4 34l-106.4 56.5c-2.9 1.6-4.8 4.6-4.8 7.9v73.8h188.8V498.3zM587.4 498.3l51.3 209.9c3.6 14.6 13.2 26.9 26.4 34l106.4 56.5c2.9 1.6 4.8 4.6 4.8 7.9v73.8H587.4V498.3z" fill="#AAE0F9" p-id="1877"></path><path d="M440.9 891.2H252c-6 0-10.9-4.9-10.9-10.9v-73.8c0-7.4 4-14.1 10.5-17.5L358 732.5c10.5-5.6 18.1-15.4 21-26.9l51.3-209.9c1.3-5.4 6.4-8.9 11.9-8.2 5.5 0.7 9.6 5.3 9.6 10.8v382.1c0 5.9-4.9 10.8-10.9 10.8z m-178-21.8H430V588.8l-29.8 121.9c-4.3 17.6-15.9 32.5-31.9 41l-105.4 55.9v61.8zM776.3 891.2H587.4c-6 0-10.9-4.9-10.9-10.9v-382c0-5.5 4.1-10.2 9.6-10.8 5.5-0.7 10.6 2.9 11.9 8.2l51.3 209.9c2.8 11.5 10.5 21.4 21 26.9L776.6 789c6.5 3.5 10.6 10.2 10.6 17.5v73.8c0 6-4.9 10.9-10.9 10.9z m-178-21.8h167.1v-61.7L660 751.8c-16-8.5-27.6-23.4-31.9-41l-29.8-121.9v280.5z" fill="#8A278E" p-id="1878"></path><path d="M501.4 966h-66l3.7-30.4c3.8-31.5 30.6-55.2 62.3-55.2V966zM527 966h66l-3.7-30.4c-3.8-31.5-30.6-55.2-62.3-55.2V966z" fill="#AAE0F9" p-id="1879"></path><path d="M501.4 976.8h-66c-3.1 0-6.1-1.3-8.2-3.7-2.1-2.3-3-5.4-2.7-8.5l3.7-30.4c4.5-36.9 35.9-64.8 73.1-64.8 6 0 10.9 4.9 10.9 10.9V966c0 6-4.8 10.8-10.8 10.8z m-53.8-21.7h42.8v-62.7c-21.2 4.6-37.9 22.2-40.6 44.5l-2.2 18.2zM593 976.8h-66c-6 0-10.9-4.9-10.9-10.9v-85.6c0-6 4.9-10.9 10.9-10.9 37.2 0 68.7 27.9 73.1 64.8l3.7 30.4c0.4 3.1-0.6 6.2-2.7 8.5-2.1 2.4-5 3.7-8.1 3.7z m-55.1-21.7h42.8l-2.2-18.2c-2.7-22.3-19.4-39.9-40.6-44.5v62.7z" fill="#8A278E" p-id="1880"></path><path d="M602.2 908.3H426.1l14-394.8c3.7-60.3 18.7-119.7 44.4-175.6l20.9-45.3c3.2-7 14.3-7 17.6-0.1l20.2 43c27 57.5 42.5 118.6 46.1 180.8l12.9 392z" fill="#E1F3FC" p-id="1881"></path><path d="M589.3 516.3c-3.5-62.2-19.1-123.4-46.1-180.8l-20.2-43c-3.3-7-14.4-6.9-17.6 0.1l-9.4 20.3 10.6 22.6c27 57.5 42.5 118.6 46.1 180.8l12.9 391.9h36.5l-12.8-391.9z" fill="#CADBE4" p-id="1882"></path><path d="M602.2 919.2H426.1c-3 0-5.8-1.2-7.8-3.3-2.1-2.1-3.2-5-3-8l14-394.8v-0.3c3.7-61.8 19-122.2 45.4-179.5l20.9-45.3c3.3-7.1 10.4-11.6 18.6-11.6h0.1c8.2 0 15.3 4.4 18.6 11.5l20.2 43c27.6 58.9 43.5 121.1 47.1 184.8v0.3l12.9 391.9c0.1 3-1 5.8-3.1 7.9-2 2.2-4.9 3.4-7.8 3.4z m-164.8-21.8h153.5l-12.6-380.6c-3.5-60.9-18.6-120.4-45-176.7l-19.1-40.7-19.8 43C469.2 397.2 454.6 454.9 451 514l-13.6 383.4z" fill="#8A278E" p-id="1883"></path><path d="M557.1 497.6l-11.5-7c-19.3-11.7-43.5-11.7-62.9 0l-11.5 7v-27.9l9.8-6.6c20-13.5 46.3-13.5 66.3 0l9.8 6.6v27.9z" fill="#A2A4A7" p-id="1884"></path><path d="M557.1 504.9c-1.3 0-2.6-0.4-3.8-1.1l-11.5-7c-17.1-10.4-38.3-10.4-55.3 0l-11.5 7c-2.2 1.4-5 1.4-7.3 0.1-2.3-1.3-3.7-3.7-3.7-6.3v-27.9c0-2.4 1.2-4.7 3.2-6l9.8-6.6c22.6-15.3 51.8-15.3 74.4 0l9.8 6.6c2 1.4 3.2 3.6 3.2 6v27.9c0 2.6-1.4 5-3.7 6.3-1.1 0.7-2.3 1-3.6 1z m-78.7-31.3v11.2l0.5-0.3c21.7-13.2 48.7-13.2 70.4 0l0.5 0.3v-11.2l-6.6-4.5c-17.7-11.9-40.5-11.9-58.1 0l-6.7 4.5z" fill="#8A278E" p-id="1885"></path><path d="M394.1 262.5h-96.5c-3.1 0-6.1-1.4-8.2-3.7-2.1-2.4-3-5.5-2.6-8.6 1.6-12.4 4.6-24.7 8.8-36.4l33-91.8c2.6-7.3 9.4-12.1 17.2-12.1s14.6 4.7 17.2 12.1l33 91.8c4.2 11.8 7.2 24 8.8 36.4 0.4 3.1-0.5 6.2-2.6 8.6-2 2.3-4.9 3.7-8.1 3.7z m-83.5-21.8h70.6c-1.4-6.6-3.3-13.2-5.6-19.6l-29.7-82.6-29.7 82.6c-2.3 6.4-4.2 13-5.6 19.6z m38.6-111.4z" fill="#8A278E" p-id="1886"></path><path d="M560.5 388.2h-92.1c-3.6 0-6.9-1.7-8.9-4.6-2-2.9-2.5-6.6-1.3-10 5-13.7 10.5-27.3 16.5-40.2l20.9-45.3c3.3-7.1 10.4-11.6 18.6-11.6h0.1c8.2 0 15.3 4.4 18.6 11.5l20.2 43c6.5 13.9 12.5 28.2 17.7 42.7 1.2 3.3 0.7 7.1-1.3 10-2.1 2.8-5.4 4.5-9 4.5z m-76.3-21.8h60.5c-3.6-8.9-7.4-17.7-11.4-26.3l-19.1-40.7-19.8 43c-3.5 7.9-7 15.9-10.2 24z m29-69.3c0 0.1 0 0.1 0 0z" fill="#8A278E" p-id="1887"></path></svg>